<?xml version="1.0" encoding="UTF-8"?>
<!DOCTYPE svg PUBLIC "-//W3C//DTD SVG 1.1//EN" "http://www.w3.org/Graphics/SVG/1.1/DTD/svg11.dtd">
<!-- Creator: CorelDRAW 2021 (64-Bit) -->
<svg xmlns="http://www.w3.org/2000/svg" xml:space="preserve" width="42.3332mm" height="12.7mm" version="1.1" style="shape-rendering:geometricPrecision; text-rendering:geometricPrecision; image-rendering:optimizeQuality; fill-rule:evenodd; clip-rule:evenodd"
viewBox="0 0 4233.32 1270"
 xmlns:xlink="http://www.w3.org/1999/xlink"
 xmlns:xodm="http://www.corel.com/coreldraw/odm/2003">
 <defs>
  <style type="text/css">
   <![CDATA[
    .fil0 {fill:#373435;fill-rule:nonzero}
   ]]>
  </style>
 </defs>
 <g id="Capa_x0020_1">
  <metadata id="CorelCorpID_0Corel-Layer"/>
  <path class="fil0" d="M694.08 698.21l-57.57 0c0,25.82 8.46,45.3 25.4,58 15.24,13.12 38.94,19.89 70.27,19.89 59.27,0 102.45,-20.32 102.45,-75.35 0,-15.24 -5.08,-28.79 -15.67,-39.79 -12.27,-11.43 -37.25,-21.17 -75.35,-28.79 -29.21,-5.5 -43.6,-14.39 -43.6,-25.82 0,-11.43 11,-17.36 33.02,-17.36 18.62,0 30.05,5.5 33.86,15.24 3.39,8.89 11.86,13.55 24.98,13.97l35.56 0c-1.27,-23.28 -10.16,-41.49 -26.67,-54.61 -16.93,-12.7 -39.79,-19.05 -68.58,-19.05 -51.22,0.85 -89.32,23.71 -89.32,71.97 0.42,35.13 25.82,57.15 75.35,66.04 38.52,6.77 58,16.08 58,27.51 0,14.4 -11.86,21.17 -35.56,21.17 -27.52,0 -45.3,-8.47 -46.57,-33.02zm362.79 5.08l-41.48 0c-7.62,0 -13.97,2.54 -19.05,8.04 -11.01,10.59 -23.29,16.09 -36.41,16.09 -27.52,0 -42.33,-17.36 -44.45,-51.65l144.78 0c4.23,-87.63 -29.21,-131.23 -100.33,-131.23 -68.16,0.43 -102.45,38.52 -102.45,114.72 0,76.2 33.87,115.57 101.6,117.69 55.04,0 85.52,-26.25 97.79,-73.66zm-97.79 -112.61c24.13,0 38.1,15.24 41.49,44.88l-84.24 0c4.23,-29.64 18.62,-44.88 42.75,-44.88zm325.12 112.61l-42.33 0c-7.2,0 -13.55,2.54 -19.05,8.04 -9.31,10.59 -20.74,16.09 -33.87,16.09 -31.32,0.42 -46.99,-22.01 -46.99,-66.46 0,-44.45 14.82,-66.89 44.45,-66.89 17.78,0 29.64,8.04 36.41,23.28l61.38 0c-9.73,-48.68 -41.91,-72.81 -96.09,-72.81 -69.01,1.27 -103.3,39.79 -103.3,116.42 1.7,77.04 36.41,115.99 104.14,115.99 52.07,1.27 85.09,-27.94 95.25,-73.66zm218.02 -155.36l-28.79 0c-18.62,0 -27.51,9.31 -27.09,27.94l0 118.11c0,24.97 -12.7,37.25 -38.1,37.25 -25.4,0 -38.1,-12.28 -38.1,-37.25l0 -146.05 -56.3 0 0 134.62c0,37.67 9.73,62.23 29.21,74.5 19.47,12.7 40.21,19.05 63.5,19.05 24.13,0 46.14,-5.92 66.04,-17.35 19.89,-12.28 29.63,-37.68 29.63,-76.2l0 -134.62zm24.55 223.94l57.15 0 0 -116.42c0,-32.59 15.66,-49.1 46.99,-49.1l19.05 0 0 -58.42 -8.05 0c-74.93,0 -113.45,35.98 -115.14,108.37l0 115.57zm347.13 -68.58l-41.48 0c-7.62,0 -13.97,2.54 -19.05,8.04 -11.01,10.59 -23.29,16.09 -36.41,16.09 -27.52,0 -42.33,-17.36 -44.45,-51.65l144.78 0c4.23,-87.63 -29.21,-131.23 -100.33,-131.23 -68.16,0.43 -102.45,38.52 -102.45,114.72 0,76.2 33.87,115.57 101.6,117.69 55.04,0 85.52,-26.25 97.79,-73.66zm-97.79 -112.61c24.13,0 38.1,15.24 41.49,44.88l-84.24 0c4.23,-29.64 18.62,-44.88 42.75,-44.88zm127.43 -75.77l0 256.96 55.45 0 0 -232.41 58.85 232.41 60.11 0 58.84 -232.41 0 232.41 55.46 0 0 -287.86 -87.63 0 -56.3 219.28 -58 -219.28 -57.15 0c-16.51,0 -29.63,14.39 -29.63,30.9zm341.2 296.75l0 46.15c1.69,1.27 9.31,1.69 23.71,1.69 46.56,0 60.11,-12.7 73.66,-49.53l88.47 -262.04 -39.37 0c-14.39,0 -23.28,6.77 -26.67,19.89l-38.94 135.47 -44.45 -155.36 -63.93 0 76.2 218.86c8.89,29.63 -2.11,44.87 -33.02,44.87l-15.66 0zm212.09 -296.75l0 256.96 59.69 0 0 -127.42 118.11 0 0 127.42 59.68 0 0 -287.86 -59.68 0 0 107.52 -118.11 0 0 -107.52 -30.06 0c-16.51,0 -29.63,14.39 -29.63,30.9zm364.48 29.63c-67.73,0 -101.6,38.52 -101.6,116.42 0,77.04 33.87,115.99 101.6,115.99 67.74,0 102.02,-38.95 102.02,-115.99 0,-77.9 -34.28,-116.42 -102.02,-116.42zm0 49.53c28.79,0 43.18,21.59 43.18,65.19 -0.42,44.45 -14.81,67.31 -43.6,67.31 -28.79,0 -43.6,-22.01 -44.03,-65.61 0,-44.45 14.82,-66.89 44.45,-66.89zm317.5 -46.14l-28.79 0c-18.62,0 -27.51,9.31 -27.09,27.94l0 118.11c0,24.97 -12.7,37.25 -38.1,37.25 -25.4,0 -38.1,-12.28 -38.1,-37.25l0 -146.05 -56.3 0 0 134.62c0,37.67 9.73,62.23 29.21,74.5 19.47,12.7 40.21,19.05 63.5,19.05 24.13,0 46.14,-5.92 66.04,-17.35 19.89,-12.28 29.63,-37.68 29.63,-76.2l0 -134.62zm75.77 150.28l-57.57 0c0,25.82 8.46,45.3 25.4,58 15.24,13.12 38.94,19.89 70.27,19.89 59.27,0 102.45,-20.32 102.45,-75.35 0,-15.24 -5.08,-28.79 -15.67,-39.79 -12.27,-11.43 -37.25,-21.17 -75.35,-28.79 -29.21,-5.5 -43.6,-14.39 -43.6,-25.82 0,-11.43 11,-17.36 33.02,-17.36 18.62,0 30.05,5.5 33.86,15.24 3.39,8.89 11.86,13.55 24.98,13.97l35.56 0c-1.27,-23.28 -10.16,-41.49 -26.67,-54.61 -16.93,-12.7 -39.79,-19.05 -68.58,-19.05 -51.22,0.85 -89.32,23.71 -89.32,71.97 0.42,35.13 25.82,57.15 75.35,66.04 38.52,6.77 58,16.08 58,27.51 0,14.4 -11.86,21.17 -35.56,21.17 -27.52,0 -45.3,-8.47 -46.57,-33.02zm362.79 5.08l-41.48 0c-7.62,0 -13.97,2.54 -19.05,8.04 -11.01,10.59 -23.29,16.09 -36.41,16.09 -27.52,0 -42.33,-17.36 -44.45,-51.65l144.78 0c4.23,-87.63 -29.21,-131.23 -100.33,-131.23 -68.16,0.43 -102.45,38.52 -102.45,114.72 0,76.2 33.87,115.57 101.6,117.69 55.04,0 85.52,-26.25 97.79,-73.66zm-97.79 -112.61c24.13,0 38.1,15.24 41.49,44.88l-84.24 0c4.23,-29.64 18.62,-44.88 42.75,-44.88z"/>
 </g>
</svg>
